<svg width="144" height="63" viewBox="0 0 144 63" fill="none" xmlns="http://www.w3.org/2000/svg">
<rect width="144" height="63" rx="15" fill="white" fill-opacity="0.1"/>
<path d="M41.26 36V23.04H43.708V29.016L48.64 23.04H51.628L46.21 29.43L51.97 36H48.874L43.708 30.096V36H41.26ZM53.6641 40.32L55.5361 35.172L55.5721 36.684L51.3421 26.28H53.8801L56.7241 33.642H56.1481L58.9741 26.28H61.4221L55.9321 40.32H53.6641ZM62.6697 36V26.28H71.3457V36H68.8977V28.566H65.1177V36H62.6697ZM82.5254 26.28V36H80.1854V30.06L75.7934 36H73.8494V26.28H76.1894V32.022L80.5994 26.28H82.5254ZM87.4231 36V28.44H84.2371V26.28H93.0571V28.44H89.8711V36H87.4231ZM94.7498 36V26.28H97.1978V29.376H98.7638C99.0338 29.376 99.3488 29.382 99.7088 29.394C100.069 29.406 100.366 29.436 100.6 29.484C101.17 29.61 101.65 29.811 102.04 30.087C102.43 30.363 102.724 30.72 102.922 31.158C103.126 31.59 103.228 32.106 103.228 32.706C103.228 33.57 103.003 34.266 102.553 34.794C102.109 35.316 101.464 35.676 100.618 35.874C100.384 35.928 100.084 35.964 99.7178 35.982C99.3518 35.994 99.0338 36 98.7638 36H94.7498ZM97.1978 34.11H99.0338C99.1418 34.11 99.2618 34.104 99.3938 34.092C99.5258 34.08 99.6578 34.056 99.7898 34.02C100.042 33.948 100.264 33.789 100.456 33.543C100.648 33.297 100.744 33.018 100.744 32.706C100.744 32.364 100.645 32.073 100.447 31.833C100.249 31.587 100.018 31.428 99.7538 31.356C99.6278 31.32 99.5018 31.296 99.3758 31.284C99.2498 31.272 99.1358 31.266 99.0338 31.266H97.1978V34.11Z" fill="white"/>
</svg>
